<?xml version="1.0" encoding="UTF-8" standalone="no"?>
<!DOCTYPE svg PUBLIC "-//W3C//DTD SVG 1.1//EN"
 "http://www.w3.org/Graphics/SVG/1.1/DTD/svg11.dtd">
<!-- Generated by graphviz version 2.28.0 (20140111.2315)
 -->
<!-- Title: boxes_and_circles Pages: 1 -->
<svg width="328pt" height="422pt"
 viewBox="0.00 0.00 328.00 422.00" xmlns="http://www.w3.org/2000/svg" xmlns:xlink="http://www.w3.org/1999/xlink">
<g id="graph0" class="graph" transform="scale(1 1) rotate(0) translate(4 418)">
<title>boxes_and_circles</title>
<polygon fill="white" stroke="none" points="-4,4 -4,-418 324,-418 324,4 -4,4"/>
<!-- Transcriptions -->
<g id="node1" class="node"><title>Transcriptions</title>
<polygon fill="none" stroke="red" points="102.419,-414 -0.418505,-414 -0.418505,-378 102.419,-378 102.419,-414"/>
<text text-anchor="middle" x="51" y="-391.8" font-family="Helvetica,sans-Serif" font-size="14.00">Transcriptions</text>
</g>
<!-- R -->
<g id="node4" class="node"><title>R</title>
<polygon fill="none" stroke="black" points="168,-342 114,-342 114,-306 168,-306 168,-342"/>
<text text-anchor="middle" x="141" y="-319.8" font-family="Helvetica,sans-Serif" font-size="14.00">R</text>
</g>
<!-- Transcriptions&#45;&gt;R -->
<g id="edge1" class="edge"><title>Transcriptions&#45;&gt;R</title>
<path fill="none" stroke="black" d="M73.2472,-377.697C84.5819,-368.881 98.5302,-358.032 110.819,-348.474"/>
<polygon fill="black" stroke="black" points="113.264,-351.007 119.009,-342.104 108.966,-345.481 113.264,-351.007"/>
</g>
<!-- XSL -->
<g id="node5" class="node"><title>XSL</title>
<polygon fill="none" stroke="black" points="82,-342 28,-342 28,-306 82,-306 82,-342"/>
<text text-anchor="middle" x="55" y="-319.8" font-family="Helvetica,sans-Serif" font-size="14.00">XSL</text>
</g>
<!-- Transcriptions&#45;&gt;XSL -->
<g id="edge2" class="edge"><title>Transcriptions&#45;&gt;XSL</title>
<path fill="none" stroke="black" d="M51.9888,-377.697C52.4296,-369.983 52.9593,-360.712 53.4507,-352.112"/>
<polygon fill="black" stroke="black" points="56.9463,-352.288 54.0226,-342.104 49.9577,-351.888 56.9463,-352.288"/>
</g>
<!-- Metadata -->
<g id="node2" class="node"><title>Metadata</title>
<polygon fill="none" stroke="red" points="195.267,-414 120.733,-414 120.733,-378 195.267,-378 195.267,-414"/>
<text text-anchor="middle" x="158" y="-391.8" font-family="Helvetica,sans-Serif" font-size="14.00">Metadata</text>
</g>
<!-- Metadata&#45;&gt;R -->
<g id="edge6" class="edge"><title>Metadata&#45;&gt;R</title>
<path fill="none" stroke="black" d="M153.798,-377.697C151.904,-369.898 149.623,-360.509 147.516,-351.829"/>
<polygon fill="black" stroke="black" points="150.915,-350.996 145.154,-342.104 144.113,-352.648 150.915,-350.996"/>
</g>
<!-- Metadata&#45;&gt;XSL -->
<g id="edge5" class="edge"><title>Metadata&#45;&gt;XSL</title>
<path fill="none" stroke="black" d="M132.803,-377.876C119.586,-368.893 103.208,-357.763 88.8931,-348.034"/>
<polygon fill="black" stroke="black" points="90.5316,-344.916 80.2935,-342.19 86.5969,-350.705 90.5316,-344.916"/>
</g>
<!-- Markdown -->
<g id="node3" class="node"><title>Markdown</title>
<polygon fill="none" stroke="red" points="172.921,-255 93.0794,-255 93.0794,-219 172.921,-219 172.921,-255"/>
<text text-anchor="middle" x="133" y="-232.8" font-family="Helvetica,sans-Serif" font-size="14.00">Markdown</text>
</g>
<!-- LaTeX -->
<g id="node6" class="node"><title>LaTeX</title>
<polygon fill="none" stroke="black" points="233.427,-153 176.573,-153 176.573,-117 233.427,-117 233.427,-153"/>
<text text-anchor="middle" x="205" y="-130.8" font-family="Helvetica,sans-Serif" font-size="14.00">LaTeX</text>
</g>
<!-- Markdown&#45;&gt;LaTeX -->
<g id="edge12" class="edge"><title>Markdown&#45;&gt;LaTeX</title>
<path fill="none" stroke="black" d="M145.541,-218.581C156.898,-202.808 173.772,-179.373 186.645,-161.492"/>
<polygon fill="black" stroke="black" points="189.6,-163.38 192.602,-153.219 183.919,-159.289 189.6,-163.38"/>
</g>
<!-- Jekyll -->
<g id="node7" class="node"><title>Jekyll</title>
<polygon fill="none" stroke="black" points="153,-153 99,-153 99,-117 153,-117 153,-153"/>
<text text-anchor="middle" x="126" y="-130.8" font-family="Helvetica,sans-Serif" font-size="14.00">Jekyll</text>
</g>
<!-- Markdown&#45;&gt;Jekyll -->
<g id="edge10" class="edge"><title>Markdown&#45;&gt;Jekyll</title>
<path fill="none" stroke="black" d="M131.781,-218.581C130.717,-203.382 129.155,-181.067 127.923,-163.464"/>
<polygon fill="black" stroke="black" points="131.395,-162.95 127.205,-153.219 124.412,-163.439 131.395,-162.95"/>
</g>
<!-- R&#45;&gt;Markdown -->
<g id="edge3" class="edge"><title>R&#45;&gt;Markdown</title>
<path fill="none" stroke="black" d="M139.381,-305.799C138.286,-294.163 136.816,-278.548 135.563,-265.237"/>
<polygon fill="black" stroke="black" points="139.038,-264.803 134.617,-255.175 132.069,-265.459 139.038,-264.803"/>
</g>
<!-- Interfaces -->
<g id="node12" class="node"><title>Interfaces</title>
<ellipse fill="none" stroke="black" cx="224" cy="-237" rx="32.25" ry="32.5"/>
<text text-anchor="middle" x="224" y="-232.8" font-family="Helvetica,sans-Serif" font-size="14.00">Interfaces</text>
</g>
<!-- R&#45;&gt;Interfaces -->
<g id="edge4" class="edge"><title>R&#45;&gt;Interfaces</title>
<path fill="none" stroke="black" d="M157.796,-305.799C168.408,-294.931 182.409,-280.593 194.801,-267.903"/>
<polygon fill="black" stroke="black" points="197.391,-270.26 201.873,-260.66 192.383,-265.369 197.391,-270.26"/>
</g>
<!-- XSL&#45;&gt;Markdown -->
<g id="edge9" class="edge"><title>XSL&#45;&gt;Markdown</title>
<path fill="none" stroke="black" d="M70.7845,-305.799C82.0969,-293.471 97.5066,-276.679 110.16,-262.89"/>
<polygon fill="black" stroke="black" points="113.057,-264.91 117.239,-255.175 107.899,-260.177 113.057,-264.91"/>
</g>
<!-- CMDI -->
<g id="node11" class="node"><title>CMDI</title>
<ellipse fill="none" stroke="black" cx="42" cy="-237" rx="32.25" ry="32.5"/>
<text text-anchor="middle" x="42" y="-232.8" font-family="Helvetica,sans-Serif" font-size="14.00">CMDI</text>
</g>
<!-- XSL&#45;&gt;CMDI -->
<g id="edge7" class="edge"><title>XSL&#45;&gt;CMDI</title>
<path fill="none" stroke="black" d="M52.3693,-305.799C51.1924,-298.104 49.7494,-288.669 48.3183,-279.312"/>
<polygon fill="black" stroke="black" points="51.7547,-278.63 46.783,-269.274 44.8352,-279.688 51.7547,-278.63"/>
</g>
<!-- Papers -->
<g id="node8" class="node"><title>Papers</title>
<ellipse fill="none" stroke="black" cx="205" cy="-33" rx="32.25" ry="32.5"/>
<text text-anchor="middle" x="205" y="-28.8" font-family="Helvetica,sans-Serif" font-size="14.00">Papers</text>
</g>
<!-- LaTeX&#45;&gt;Papers -->
<g id="edge13" class="edge"><title>LaTeX&#45;&gt;Papers</title>
<path fill="none" stroke="black" d="M205,-116.581C205,-105.324 205,-90.1641 205,-75.9061"/>
<polygon fill="black" stroke="black" points="208.5,-75.7522 205,-65.7523 201.5,-75.7523 208.5,-75.7522"/>
</g>
<!-- Texts -->
<g id="node9" class="node"><title>Texts</title>
<ellipse fill="none" stroke="black" cx="288" cy="-33" rx="32.25" ry="32.5"/>
<text text-anchor="middle" x="288" y="-28.8" font-family="Helvetica,sans-Serif" font-size="14.00">Texts</text>
</g>
<!-- LaTeX&#45;&gt;Texts -->
<g id="edge14" class="edge"><title>LaTeX&#45;&gt;Texts</title>
<path fill="none" stroke="black" d="M219.457,-116.581C230.873,-102.828 247.124,-83.2488 260.937,-66.6066"/>
<polygon fill="black" stroke="black" points="263.796,-68.6413 267.49,-58.7111 258.41,-64.1706 263.796,-68.6413"/>
</g>
<!-- Websites -->
<g id="node10" class="node"><title>Websites</title>
<ellipse fill="none" stroke="black" cx="122" cy="-33" rx="32.25" ry="32.5"/>
<text text-anchor="middle" x="122" y="-28.8" font-family="Helvetica,sans-Serif" font-size="14.00">Websites</text>
</g>
<!-- Jekyll&#45;&gt;Websites -->
<g id="edge11" class="edge"><title>Jekyll&#45;&gt;Websites</title>
<path fill="none" stroke="black" d="M125.303,-116.581C124.853,-105.324 124.247,-90.1641 123.676,-75.9061"/>
<polygon fill="black" stroke="black" points="127.167,-75.6043 123.27,-65.7523 120.173,-75.8842 127.167,-75.6043"/>
</g>
<!-- Trova -->
<g id="node13" class="node"><title>Trova</title>
<ellipse fill="none" stroke="black" cx="42" cy="-135" rx="32.25" ry="32.5"/>
<text text-anchor="middle" x="42" y="-130.8" font-family="Helvetica,sans-Serif" font-size="14.00">Trova</text>
</g>
<!-- CMDI&#45;&gt;Trova -->
<g id="edge8" class="edge"><title>CMDI&#45;&gt;Trova</title>
<path fill="none" stroke="black" d="M42,-204.359C42,-195.969 42,-186.779 42,-177.934"/>
<polygon fill="black" stroke="black" points="45.5001,-177.778 42,-167.778 38.5001,-177.778 45.5001,-177.778"/>
</g>
</g>
</svg>

